<?xml version="1.0" encoding="utf-8"?>
<!-- Generator: Adobe Illustrator 23.0.3, SVG Export Plug-In . SVG Version: 6.00 Build 0)  -->
<svg version="1.1" id="Layer_1_copy" xmlns="http://www.w3.org/2000/svg" xmlns:xlink="http://www.w3.org/1999/xlink" x="0px"
	 y="0px" viewBox="0 0 569.2 262.1" style="enable-background:new 0 0 569.2 262.1;" xml:space="preserve">
<style type="text/css">
	.st0{fill:#EC2326;}
	.st1{fill:#0B73BA;}
	.st2{stroke:#000000;stroke-width:0.5;stroke-miterlimit:10;}
	.st3{fill:#1FAE50;}
	.st4{fill:#FEC013;}
</style>
<g>
	<g>
		<path class="st0" d="M83.2,118.8c0,8.7-3.7,16.2-11,22.4c-6.4,5.5-14.3,9-23.5,10.5c-0.3,0-0.6,0.1-0.8,0.1c-1,0-3.2-3-6.6-9
			c-3.4-6-5.1-9.7-5.1-11c0-0.5,0.3-0.8,1-0.9c6.2-1.4,10.3-2.6,12.3-3.6c4.5-2.2,6.7-5.5,6.7-9.9c0-2.8-1.5-5.9-4.4-9.3
			c-5.1-5.8-7.8-9.1-8.2-9.7c-3-4.5-4.4-9.4-4.4-14.8c0-7.8,3.6-14.4,10.9-19.5c5.9-4.3,13.2-7.1,21.8-8.4c0.5,0,0.8-0.1,1.1-0.1
			c0.6,0,1.2,0.5,1.5,1.5c1.1,3.1,3.7,8.8,7.8,17c0.1,0.3,0.2,0.5,0.2,0.6c0,0.7-0.4,1.1-1.2,1.1c-0.3,0-0.9-0.1-1.7-0.2
			c-0.8-0.1-1.4-0.2-1.9-0.2c-3.1,0-5.8,0.7-8.1,2.1c-2.8,1.6-4.2,3.9-4.2,6.8c0,2.6,1.5,5.8,4.6,9.6c5.4,6.9,8.3,10.5,8.6,10.8
			C81.6,109.4,83.2,114.1,83.2,118.8z"/>
		<path class="st0" d="M152.3,113.4c0,4.3-1.4,6.8-4.2,7.4c-0.5,0.1-4.9,0.6-13.3,1.4c-5.1,0.6-12.6,1.2-22.6,2
			c0.6,2.8,2.4,4.9,5.5,6.4c2.5,1.2,5.3,1.8,8.5,1.8c3.8,0,7.7-1,11.5-3.1c1.6-1,3.3-2.1,4.9-3.1c0.9,0.4,2.4,2.6,4.5,6.6
			s3.2,6.5,3.2,7.5c0,0.3-0.3,0.8-1,1.5c-5.2,5.6-13.4,8.4-24.4,8.4c-10.2,0-18.4-3-24.7-8.9c-6.4-6-9.6-14.1-9.6-24.2
			c0-9.9,2.9-17.9,8.6-24.2c5.9-6.5,13.8-9.8,23.5-9.8c8.2,0,15.2,3,21,9C149.4,98,152.3,105.2,152.3,113.4z M129.8,109.5
			c0-2.7-0.9-5-2.8-7c-1.9-2-4.1-3-6.8-3c-2.7,0-4.9,1.1-6.7,3.4c-1.6,2.1-2.4,4.6-2.4,7.4c0,1.2,0.6,1.7,1.8,1.7
			c3.2,0,8.1-0.5,14.8-1.5C129.1,110.3,129.8,110,129.8,109.5z"/>
		<path class="st0" d="M230.3,117.4c0,9.2-2.7,16.8-8.1,22.8c-5.6,6.3-12.9,9.4-21.9,9.4c-3.3,0-6.8-0.8-10.6-2.4
			c-3.8-1.6-5.5-2.4-5.1-2.4c-0.6,0-0.8,0.6-0.8,1.9c0,2.2,0.1,5.5,0.3,9.9c0.2,4.4,0.3,7.7,0.3,9.9c0,1.4-0.7,2.1-2.1,2.1
			l-13.1,0.1c-3,0-4.9-0.1-5.7-0.3c-1.3-0.3-1.9-1.1-1.9-2.4l0.1-49.5c0-10-0.8-18.4-2.3-25.3c-0.1-0.4-0.1-0.8-0.1-1.1
			c0-0.6,0.3-1.1,0.8-1.3c1.7-0.6,4.9-1.3,9.6-2.1c4.6-0.7,7.9-1.1,10-1.1c1.7,0,2.6,1.1,2.9,3.3c0.2,2.2,0.5,3.3,0.9,3.3
			c-0.4,0,1.4-1.2,5.5-3.5c4.1-2.3,7.8-3.5,11.2-3.5c9.3,0,16.7,3.1,22.3,9.2C227.6,100.3,230.3,108,230.3,117.4z M206.4,117.3
			c0-3.4-1.1-6.4-3.1-9c-2.3-2.7-5.1-4-8.4-4c-3.4,0-6.2,1.3-8.2,4c-1.8,2.4-2.7,5.4-2.7,9c0,3.6,0.9,6.7,2.8,9.1
			c2,2.6,4.8,3.9,8.4,3.9C202.6,130.3,206.4,126,206.4,117.3z"/>
		<path class="st0" d="M300.5,116.7c0,9.8-3,17.7-9,23.8c-6,6.1-13.8,9.1-23.6,9.1c-9.4,0-17.2-3-23.3-9c-6.1-6-9.1-13.7-9.1-23.1
			c0-9.9,2.9-18,8.7-24.2c5.8-6.2,13.7-9.3,23.7-9.3c9.7,0,17.5,3,23.5,9.1C297.5,99.2,300.5,107,300.5,116.7z M279.4,116.7
			c0-3.4-1.1-6.4-3.1-9c-2.1-2.6-4.8-3.9-8.2-3.9c-3.4,0-6.2,1.3-8.4,4c-2.1,2.5-3.1,5.4-3.1,8.9c0,3.5,1,6.5,3.1,8.9
			c2.2,2.7,5,4,8.4,4c3.3,0,6.1-1.3,8.3-4C278.4,123.2,279.4,120.2,279.4,116.7z"/>
		<path class="st1" d="M352.5,118.8c0,8.7-3.7,16.2-11,22.4c-6.4,5.5-14.3,9-23.5,10.5c-0.3,0-0.6,0.1-0.8,0.1c-1,0-3.2-3-6.6-9
			c-3.4-6-5.1-9.7-5.1-11c0-0.5,0.3-0.8,1-0.9c6.2-1.4,10.3-2.6,12.3-3.6c4.5-2.2,6.7-5.5,6.7-9.9c0-2.8-1.5-5.9-4.4-9.3
			c-5.1-5.8-7.8-9.1-8.2-9.7c-3-4.5-4.4-9.4-4.4-14.8c0-7.8,3.6-14.4,10.9-19.5c5.9-4.3,13.2-7.1,21.8-8.4c0.5,0,0.8-0.1,1.1-0.1
			c0.6,0,1.2,0.5,1.5,1.5c1.1,3.1,3.7,8.8,7.8,17c0.1,0.3,0.2,0.5,0.2,0.6c0,0.7-0.4,1.1-1.2,1.1c-0.3,0-0.9-0.1-1.7-0.2
			c-0.8-0.1-1.4-0.2-1.9-0.2c-3.1,0-5.8,0.7-8.1,2.1c-2.8,1.6-4.2,3.9-4.2,6.8c0,2.6,1.5,5.8,4.6,9.6c5.4,6.9,8.3,10.5,8.5,10.8
			C351,109.4,352.5,114.1,352.5,118.8z"/>
		<path class="st1" d="M427.4,116.2c0,3.3,0.2,8.2,0.6,14.7c0.4,6.5,0.6,11.4,0.6,14.7c0,1.7-0.8,2.6-2.3,2.8
			c-5.3,0.4-11.4,0.6-18.3,0.6c-0.8,0-1.4-1.2-1.6-3.7c-0.3-2.5-0.6-3.7-1-3.8c-0.3,0.2-0.8,0.5-1.4,1.1c-4.8,4.8-9.9,7.3-15.4,7.3
			c-8.4,0-15.3-3.3-20.8-9.9c-5.2-6.2-7.8-13.5-7.8-22.1c0-9.9,2.7-17.9,8-23.9c5.6-6.3,13.2-9.4,22.9-9.4c6.7,0,12,2.4,15.9,7.1
			c0.2,0.2,0.3,0.3,0.5,0.3c0.4,0,0.8-1,1.3-3.1c0.5-2.1,1.1-3.1,1.8-3.1c1.6,0,4.6,0.5,9.1,1.4c4.2,0.9,7.3,1.6,9.1,2.2
			c0.6,0.3,1,0.6,1,1c0,0.2-0.1,0.6-0.2,1.4C428.1,99.3,427.4,107.6,427.4,116.2z M406.7,116.6c0-3.6-1.1-6.7-3.4-9s-5.3-3.6-9-3.6
			c-3.7,0-6.7,1.2-8.9,3.5c-2.3,2.4-3.4,5.4-3.4,9.1c0,3.5,1.2,6.5,3.6,8.9c2.4,2.5,5.3,3.7,8.7,3.7c3.6,0,6.6-1.2,8.9-3.6
			S406.7,120.3,406.7,116.6z"/>
		<path class="st1" d="M463.6,109.7c0,11.7,0,20.7,0.1,26.9c0,1,0.1,2.7,0.2,5.1c0.1,2.2,0.2,3.9,0.2,5.1c0,0.9-0.5,1.4-1.6,1.6
			c-1.9,0.3-5.4,0.5-10.4,0.5c-5.1,0-8.4-0.2-9.8-0.5c-0.9-0.2-1.5-0.8-1.6-1.7c0-0.1,0-1,0-2.8c0-3.8,0-9.5,0.1-17.1
			c0.1-7.6,0.1-13.3,0.1-17.1c0-18,0-26.2,0.1-24.6c-0.1-9.5-0.7-17.6-1.6-24.5c-0.1-0.5-0.1-0.8-0.1-1.1c0-0.9,0.6-1.4,1.7-1.4h23
			c1.1,0,1.6,0.5,1.5,1.4l-0.1,1.2C464.1,79,463.6,95.4,463.6,109.7z"/>
		<path class="st1" d="M534.2,113.4c0,4.3-1.4,6.8-4.2,7.4c-0.5,0.1-4.9,0.6-13.3,1.4c-5.1,0.6-12.6,1.2-22.6,2
			c0.6,2.8,2.4,4.9,5.5,6.4c2.5,1.2,5.3,1.8,8.5,1.8c3.8,0,7.7-1,11.5-3.1c1.6-1,3.3-2.1,4.9-3.1c0.9,0.4,2.4,2.6,4.5,6.6
			s3.2,6.5,3.2,7.5c0,0.3-0.3,0.8-1,1.5c-5.2,5.6-13.4,8.4-24.4,8.4c-10.2,0-18.4-3-24.7-8.9c-6.4-6-9.6-14.1-9.6-24.2
			c0-9.9,2.9-17.9,8.6-24.2c5.9-6.5,13.8-9.8,23.5-9.8c8.2,0,15.2,3,21,9C531.3,98,534.2,105.2,534.2,113.4z M511.7,109.5
			c0-2.7-0.9-5-2.8-7c-1.9-2-4.1-3-6.8-3c-2.7,0-4.9,1.1-6.7,3.4c-1.6,2.1-2.4,4.6-2.4,7.4c0,1.2,0.6,1.7,1.8,1.7
			c3.2,0,8.1-0.5,14.8-1.5C511,110.3,511.7,110,511.7,109.5z"/>
	</g>
	<g>
		<path class="st2" d="M62.6,242.2c-0.2,1.7-0.4,3.1-0.8,4.2c-0.3,0.7-1.3,1.3-3,1.8c-1.9,0.6-4,0.9-6.5,0.9c-4,0-7.4-1.2-10.1-3.6
			c-2.7-2.5-4.1-5.6-4.1-9.4c0-3.9,1.4-7.2,4.2-9.7c2.7-2.5,6-3.8,9.9-3.8c2.7,0,5,0.3,6.9,1c1.7,0.6,2.5,1.1,2.6,1.6
			c0.1,1,0.2,2.6,0.2,4.8c0,0.4-0.3,0.6-1,0.6c-0.5,0.1-0.8-0.1-0.9-0.5c-0.7-2.2-1.6-3.7-2.7-4.6s-2.9-1.3-5.1-1.3
			c-2.9,0-5.2,0.9-7,2.8c-2,2.1-2.9,4.9-2.9,8.5c0,3.6,1,6.4,3.1,8.6c2,2.2,4.6,3.2,7.7,3.2c2,0,3.6-0.4,4.8-1.3
			c1.1-0.8,2-2.2,2.7-4.1c0.2-0.6,0.7-0.8,1.4-0.6C62.4,241.5,62.7,241.8,62.6,242.2z"/>
		<path class="st2" d="M87,243.7c-0.4,1.7-0.7,3.2-0.7,4.6c0,0.2-0.4,0.3-1.2,0.3c-2-0.1-4.6-0.2-7.6-0.2c-3.2,0-6,0.1-8.5,0.2
			c-0.4,0-0.6,0-0.7-0.1c-0.1-0.1-0.1-0.3-0.1-0.6c0-0.3,0.3-0.5,0.8-0.6c1.3-0.1,1.9-0.8,1.9-2v-17.9c0-0.9-0.1-1.6-0.4-2
			c-0.3-0.5-0.9-0.9-1.7-1.2c-0.5-0.2-0.7-0.5-0.7-0.9c0-0.3,0.1-0.5,0.3-0.5s0.5,0,1,0c1.9,0.2,4.1,0.2,6.7,0c0.5,0,0.7-0.1,0.8,0
			c0.3,0,0.4,0.2,0.4,0.5c0,0.3,0,0.6-0.3,0.7c-0.1,0.1-0.3,0.1-0.8,0.2c-0.9,0.2-1.5,0.4-1.7,0.7c-0.2,0.3-0.3,0.8-0.3,1.7v17.3
			c0,1.1,0.4,1.8,1.1,2.2c0.7,0.4,2.1,0.6,4,0.6c1.8,0,3.2-0.2,4.1-0.7c0.9-0.5,1.6-1.4,2.2-2.7c0.2-0.5,0.5-0.7,0.9-0.5
			C87,243.1,87.1,243.3,87,243.7z"/>
		<path class="st2" d="M101.1,223.5c0,0.3-0.3,0.6-1,0.8c-1.6,0.5-2.3,1.1-2.3,1.8v18.8c0,1.2,0.7,1.9,2.1,2.2
			c0.7,0.1,1.1,0.4,1.1,0.8c0,0.3-0.1,0.5-0.2,0.6c-0.1,0.1-0.5,0.1-1,0.1c-3.4-0.1-6-0.1-7.9,0c-0.5,0-0.8-0.1-0.8-0.3
			c0-0.1,0-0.2,0-0.4c0-0.3,0.3-0.5,0.9-0.6c1.1-0.2,1.7-0.4,1.9-0.5c0.4-0.3,0.6-0.8,0.6-1.6v-19c0-1.1-0.7-1.7-2.2-2
			c-0.6-0.1-0.9-0.3-0.9-0.6c0-0.4,0-0.6,0.1-0.7c0.1-0.1,0.3-0.1,0.7-0.1c2.5,0.3,5.1,0.2,7.8-0.1c0.5-0.1,0.8-0.1,0.9-0.1
			C101,222.9,101.1,223.1,101.1,223.5z"/>
		<path class="st2" d="M130.8,242.2c-0.2,1.7-0.4,3.1-0.8,4.2c-0.3,0.7-1.3,1.3-3,1.8c-1.9,0.6-4,0.9-6.5,0.9c-4,0-7.4-1.2-10.1-3.6
			c-2.7-2.5-4.1-5.6-4.1-9.4c0-3.9,1.4-7.2,4.2-9.7c2.7-2.5,6-3.8,9.9-3.8c2.7,0,5,0.3,6.9,1c1.7,0.6,2.5,1.1,2.6,1.6
			c0.1,1,0.2,2.6,0.2,4.8c0,0.4-0.3,0.6-1,0.6c-0.5,0.1-0.8-0.1-0.9-0.5c-0.7-2.2-1.6-3.7-2.7-4.6s-2.9-1.3-5.1-1.3
			c-2.9,0-5.2,0.9-7,2.8c-2,2.1-2.9,4.9-2.9,8.5c0,3.6,1,6.4,3.1,8.6c2,2.2,4.6,3.2,7.7,3.2c2,0,3.6-0.4,4.8-1.3
			c1.1-0.8,2-2.2,2.7-4.1c0.2-0.6,0.7-0.8,1.4-0.6C130.6,241.5,130.8,241.8,130.8,242.2z"/>
		<path class="st2" d="M160.7,247.9c0,0.3,0,0.5-0.1,0.6s-0.3,0.1-0.6,0.1c-3.3-0.1-6-0.1-8,0.2c-0.5,0.1-0.8,0-0.8-0.3
			c-0.1-0.3,0.2-0.6,0.8-0.9c0.4-0.2,0.5-0.5,0.5-0.9s-0.2-0.9-0.6-1.3c-1.8-1.9-4.9-4.9-9.3-9.1v9.1c0,0.7,0.8,1.3,2.3,1.7
			c0.7,0.2,1,0.4,1,0.8c0,0.3-0.1,0.5-0.2,0.6c-0.1,0.1-0.4,0.1-0.9,0.1c-2.3-0.1-4.8-0.1-7.6,0.2c-0.5,0-0.8-0.2-0.8-0.7
			c0-0.3,0.3-0.5,0.8-0.6c1.2-0.1,1.8-0.8,1.8-2.1v-18.6c0-1.2-0.7-2-2-2.3c-0.5-0.1-0.8-0.2-0.9-0.3c-0.1-0.1-0.2-0.2-0.2-0.4
			c0-0.3,0.1-0.5,0.2-0.6s0.4-0.1,1-0.1c3.2,0.2,5.8,0.2,7.7,0c0.6-0.1,0.8,0.2,0.8,0.7c0,0.2-0.3,0.4-0.8,0.6
			c-1,0.2-1.6,0.4-1.8,0.5c-0.4,0.3-0.6,0.8-0.6,1.5v8.5c3.6-3,6.6-5.6,8.8-7.6c0.7-0.6,1-1.1,1-1.6s-0.4-0.9-1.1-1.2
			c-0.4-0.1-0.6-0.2-0.7-0.3c-0.2-0.1-0.3-0.3-0.2-0.6c0-0.3,0.1-0.5,0.2-0.5c0.1-0.1,0.4-0.1,0.9,0c2.5,0.3,4.8,0.3,6.9,0.1
			c0.3,0,0.5,0,0.6,0.1c0.1,0.1,0.2,0.2,0.2,0.5c0.1,0.3,0,0.4-0.1,0.5c-0.1,0.1-0.4,0.2-0.9,0.3c-1.2,0.4-2.7,1.3-4.6,2.8
			c-1.4,1.1-4.2,3.5-8.6,7.2c4.7,4.5,8.4,7.9,11.1,10.3c1.2,1.1,2.4,1.8,3.6,2.1C160.4,247.4,160.7,247.6,160.7,247.9z"/>
		<path class="st2" d="M200.7,248.2c-0.1,0.3-0.2,0.6-0.3,0.6c-0.1,0.1-0.3,0-0.5,0c-1.8-0.3-4.5-0.4-8.1-0.1
			c-0.7,0.1-1-0.1-1.1-0.4c-0.1-0.4,0.1-0.6,0.6-0.8c1.4-0.6,2.1-1.1,2.1-1.6c0-0.2-0.1-0.5-0.2-0.8c-1-2.3-1.7-4.1-2.4-5.5
			c-0.9,0.1-2.5,0.1-4.8,0.1c-1.9,0-3.5-0.1-4.9-0.2c-0.5,1.1-1.1,2.7-1.9,4.6c-0.2,0.5-0.3,0.9-0.3,1.2c0,0.7,0.4,1.3,1.2,1.6
			c1.2,0.5,1.8,0.9,1.8,1.2c0,0.4-0.4,0.6-1.2,0.5c-2.4-0.3-4.7-0.2-6.7,0.2c-0.5,0.1-0.8-0.1-0.9-0.6c-0.1-0.3,0.4-0.7,1.3-1.1
			c1-0.4,1.8-1.3,2.4-2.8c2.5-5.5,4.1-9,4.9-10.8c1.8-4.1,3-7.5,3.8-10.1c0.1-0.4,0.6-0.8,1.5-1.1c0.2-0.1,0.5,0.3,0.8,1.1
			c2.8,6.7,5.9,13.9,9.4,21.5c0.6,1.2,1.5,2,2.8,2.4C200.5,247.6,200.7,247.8,200.7,248.2z M190.2,238c-0.9-1.9-2.2-4.9-4-9
			c-0.1-0.2-0.2-0.3-0.3-0.3s-0.2,0.1-0.3,0.3l-3.7,8.9c1.4,0.1,2.9,0.2,4.6,0.2C187.5,238,188.7,238,190.2,238z"/>
		<path class="st2" d="M233.8,223.5c0,0.3-0.3,0.6-1,0.8c-1.5,0.4-2.3,1.3-2.3,2.7v13.9c0,2.9,0,5.3,0.1,7.1c0,0.7-0.1,1.1-0.5,1.2
			c-0.6,0.1-1.1-0.2-1.5-0.9c-0.6-1.2-3.2-4.2-7.6-9.1c-3.7-4-7.3-7.8-10.7-11.2c-0.1-0.1-0.2-0.1-0.3-0.1c-0.1,0.1-0.2,0.2-0.2,0.4
			v15.9c0,1.7,0.9,2.7,2.6,3c0.7,0.1,1.1,0.4,1.1,0.8c0,0.5-0.4,0.7-1.2,0.7c-3.1-0.1-5.5-0.1-7.2,0c-0.6,0-0.8-0.2-0.8-0.7
			c0-0.3,0.3-0.5,0.8-0.6c1-0.2,1.7-0.5,2-0.9s0.5-1.1,0.5-2v-17.1c0-0.7-0.2-1.3-0.5-1.7c-0.3-0.4-0.9-0.7-1.7-1.1
			c-0.6-0.3-0.9-0.6-0.9-0.9c0-0.3,0.3-0.5,0.9-0.4c1.7,0.2,3.1,0.3,4.4,0.2c0.6-0.1,1.2,0.2,1.7,0.7l16.2,17.3
			c0.2,0.2,0.4,0.4,0.4,0.4c0.1,0,0.2-0.2,0.2-0.5v-14c0-1.6-0.9-2.6-2.6-2.9c-0.6-0.1-0.9-0.3-0.9-0.5c0-0.5,0.3-0.8,0.8-0.7
			c2.1,0.2,4.5,0.2,7.1-0.1c0.5-0.1,0.7-0.1,0.9,0C233.7,222.9,233.8,223.1,233.8,223.5z"/>
		<path class="st2" d="M265.1,235.3c0,4.5-1.5,7.9-4.4,10.2c-2.8,2.1-6.6,3.2-11.6,3.2c-0.4,0-1.3,0-2.8-0.1
			c-1.5-0.1-2.6-0.1-3.4-0.1c-1.1,0-2.2,0.1-3.5,0.2c-0.6,0.1-0.8-0.2-0.8-0.7c0-0.3,0.3-0.5,0.8-0.6c1.3-0.1,1.9-0.8,1.9-2.1v-18.5
			c0-0.7-0.1-1.2-0.4-1.4c-0.2-0.2-0.7-0.4-1.5-0.5c-0.7-0.1-1.1-0.2-1.2-0.3c-0.1-0.1-0.2-0.3-0.3-0.6c0-0.3,0.1-0.5,0.4-0.6
			c0.1,0,0.3,0,0.9-0.1c2.8-0.2,6.4-0.3,11-0.3c4.4,0,8,1.1,10.7,3.2C263.7,228.5,265.1,231.5,265.1,235.3z M261.1,235.9
			c0-7.5-3.8-11.2-11.5-11.2h-2.7c-1.4,0.1-2.1,0.5-2.1,1.2v18c0,1.3,0.3,2.1,1,2.5c0.7,0.4,2,0.6,4,0.6
			C257.3,247,261.1,243.3,261.1,235.9z"/>
		<path class="st2" d="M320.1,223.9c0,0.4-0.4,0.8-1.2,1c-0.9,0.3-1.6,1.2-2.2,2.7c-2.9,7.1-5.6,14-8.1,20.5
			c-0.2,0.5-0.7,0.9-1.4,1.1c0,0-0.1,0-0.1,0c-0.4,0-0.6-0.4-0.8-1.2c-0.6-2.8-2.7-8.4-6.5-16.8c-1.6,4-3.8,9.6-6.4,16.8
			c-0.2,0.5-0.7,0.9-1.4,1.1c-0.1,0-0.1,0-0.2,0c-0.4,0-0.6-0.4-0.8-1.2c-0.5-2.6-3.3-9.7-8.5-21.2c-0.5-1.2-1.4-1.9-2.7-2.2
			c-0.6-0.1-0.9-0.3-0.9-0.6c0-0.5,0.3-0.8,0.8-0.7c2,0.2,4.5,0,7.5-0.4c0.5-0.1,0.8-0.1,0.9,0c0.1,0.1,0.2,0.3,0.2,0.6
			c0.1,0.3-0.3,0.6-0.9,0.9c-0.8,0.4-1.2,0.9-1.2,1.4c0,0.2,0.1,0.5,0.2,0.8c1.3,3.4,3.3,8.9,6.2,16.3c0.1,0.2,0.2,0.4,0.4,0.4
			c0.1,0,0.3-0.1,0.3-0.4l5.4-14.3c-0.2-0.4-0.5-1-0.9-1.8c-0.5-1-1.3-1.7-2.5-2.3c-0.6-0.3-0.9-0.5-0.8-0.8
			c0.1-0.6,0.4-0.8,0.9-0.8c2.3,0.4,4.8,0.4,7.7,0.1c0.5-0.1,0.8,0,1,0c0.1,0.1,0.2,0.3,0.2,0.6c0,0.3-0.3,0.6-1,0.8
			c-1.3,0.4-1.9,0.8-1.9,1.3c0,0.2,0.1,0.4,0.2,0.8l6.2,16.3c0.1,0.3,0.2,0.4,0.4,0.4c0.1,0,0.3-0.1,0.4-0.4l5.8-15.4
			c0.1-0.3,0.2-0.6,0.2-0.8c0-0.9-0.8-1.6-2.3-2.1c-0.6-0.2-0.9-0.5-0.8-0.9c0-0.3,0.1-0.5,0.2-0.5c0.1-0.1,0.5-0.1,1.1,0
			c2.4,0.3,4.7,0.3,6.8,0.1C319.9,223.2,320.1,223.4,320.1,223.9z"/>
		<path class="st2" d="M343.9,243.7c-0.4,1.5-0.6,3.1-0.7,4.6c0,0.2-0.4,0.3-1.2,0.3c-2-0.1-4.6-0.2-7.7-0.2c-3.4,0-6.4,0.1-8.9,0.2
			c-0.6,0-0.8-0.2-0.8-0.7c0-0.3,0.3-0.5,0.8-0.6c0.8-0.1,1.3-0.2,1.5-0.4c0.3-0.3,0.4-0.8,0.4-1.6v-17.8c0-1.2-0.1-2-0.3-2.3
			c-0.2-0.3-0.8-0.6-1.8-0.9c-0.5-0.2-0.7-0.5-0.6-0.9c0.1-0.2,0.2-0.4,0.3-0.4c0.1,0,0.5,0,1,0.1c0.8,0.1,3,0.2,6.5,0.2
			c3.5,0,6.5-0.1,9-0.2c0.8-0.1,1.3,0,1.3,0.2c0,0.1,0,0.1,0,0.2c-0.3,1.3-0.4,2.7-0.3,4.4c0,0.4-0.2,0.6-0.6,0.6
			c-0.4,0-0.6-0.2-0.8-0.5c-0.4-0.9-0.7-1.5-0.9-1.8c-0.4-0.5-1-0.8-1.8-0.9c-0.6-0.1-2.8-0.2-6.5-0.2c-0.4,0-0.7,0.1-0.8,0.2
			c-0.1,0.1-0.1,0.3-0.1,0.6v8.1c0,0.3,0.2,0.5,0.6,0.5c1.2,0,2.9-0.1,5.1-0.3c0.4,0,0.7-0.2,0.9-0.6c0.1-0.3,0.3-0.8,0.4-1.6
			c0.1-0.6,0.4-0.8,0.9-0.6c0.4,0.1,0.6,0.3,0.6,0.6c-0.4,1.8-0.5,4-0.3,6.8c0,0.3-0.2,0.5-0.6,0.6c-0.4,0.1-0.6-0.2-0.7-0.6
			c-0.1-1-0.3-1.6-0.5-2c-0.2-0.3-0.6-0.5-1.1-0.6c-1.1-0.1-2.7-0.2-4.8-0.2c-0.2,0-0.3,0.1-0.3,0.3v8.4c0,1.2,0.7,1.9,2.1,2.2
			c0.3,0.1,1.6,0.1,3.6,0.1c3.2,0,5.2-1.1,6-3.4c0.2-0.5,0.5-0.7,0.9-0.5C343.8,243.1,344,243.3,343.9,243.7z"/>
		<path class="st2" d="M385.5,235.3c0,4.5-1.5,7.9-4.4,10.2c-2.8,2.1-6.6,3.2-11.6,3.2c-0.4,0-1.3,0-2.8-0.1s-2.6-0.1-3.4-0.1
			c-1.1,0-2.2,0.1-3.5,0.2c-0.6,0.1-0.8-0.2-0.8-0.7c0-0.3,0.3-0.5,0.8-0.6c1.3-0.1,1.9-0.8,1.9-2.1v-18.5c0-0.7-0.1-1.2-0.4-1.4
			c-0.2-0.2-0.7-0.4-1.5-0.5c-0.7-0.1-1.1-0.2-1.2-0.3s-0.2-0.3-0.3-0.6c0-0.3,0.1-0.5,0.4-0.6c0.1,0,0.3,0,0.9-0.1
			c2.8-0.2,6.4-0.3,11-0.3c4.4,0,8,1.1,10.7,3.2C384.1,228.5,385.5,231.5,385.5,235.3z M381.4,235.9c0-7.5-3.8-11.2-11.5-11.2h-2.7
			c-1.4,0.1-2.1,0.5-2.1,1.2v18c0,1.3,0.3,2.1,1,2.5c0.7,0.4,2,0.6,4,0.6C377.6,247,381.4,243.3,381.4,235.9z"/>
		<path class="st2" d="M410.1,243.7c-0.4,1.5-0.6,3.1-0.7,4.6c0,0.2-0.4,0.3-1.2,0.3c-2-0.1-4.6-0.2-7.7-0.2c-3.4,0-6.4,0.1-8.9,0.2
			c-0.6,0-0.8-0.2-0.8-0.7c0-0.3,0.3-0.5,0.8-0.6c0.8-0.1,1.3-0.2,1.5-0.4c0.3-0.3,0.4-0.8,0.4-1.6v-17.8c0-1.2-0.1-2-0.3-2.3
			c-0.2-0.3-0.8-0.6-1.8-0.9c-0.5-0.2-0.7-0.5-0.6-0.9c0.1-0.2,0.2-0.4,0.3-0.4c0.1,0,0.5,0,1,0.1c0.8,0.1,3,0.2,6.5,0.2
			c3.5,0,6.5-0.1,9-0.2c0.8-0.1,1.3,0,1.3,0.2c0,0.1,0,0.1,0,0.2c-0.3,1.3-0.4,2.7-0.3,4.4c0,0.4-0.2,0.6-0.6,0.6
			c-0.4,0-0.6-0.2-0.8-0.5c-0.4-0.9-0.7-1.5-0.9-1.8c-0.4-0.5-1-0.8-1.8-0.9c-0.6-0.1-2.8-0.2-6.5-0.2c-0.4,0-0.7,0.1-0.8,0.2
			c-0.1,0.1-0.1,0.3-0.1,0.6v8.1c0,0.3,0.2,0.5,0.6,0.5c1.2,0,2.9-0.1,5.1-0.3c0.4,0,0.7-0.2,0.9-0.6c0.1-0.3,0.3-0.8,0.4-1.6
			c0.1-0.6,0.4-0.8,0.9-0.6c0.4,0.1,0.6,0.3,0.6,0.6c-0.4,1.8-0.5,4-0.3,6.8c0,0.3-0.2,0.5-0.6,0.6c-0.4,0.1-0.6-0.2-0.7-0.6
			c-0.1-1-0.3-1.6-0.5-2c-0.2-0.3-0.6-0.5-1.1-0.6c-1.1-0.1-2.7-0.2-4.8-0.2c-0.2,0-0.3,0.1-0.3,0.3v8.4c0,1.2,0.7,1.9,2.1,2.2
			c0.3,0.1,1.6,0.1,3.6,0.1c3.2,0,5.2-1.1,6-3.4c0.2-0.5,0.5-0.7,0.9-0.5C410,243.1,410.2,243.3,410.1,243.7z"/>
		<path class="st2" d="M434.1,243.7c-0.4,1.7-0.7,3.2-0.7,4.6c0,0.2-0.4,0.3-1.2,0.3c-2-0.1-4.6-0.2-7.6-0.2c-3.2,0-6,0.1-8.5,0.2
			c-0.4,0-0.6,0-0.7-0.1c-0.1-0.1-0.1-0.3-0.1-0.6c0-0.3,0.3-0.5,0.8-0.6c1.3-0.1,1.9-0.8,1.9-2v-17.9c0-0.9-0.1-1.6-0.4-2
			c-0.3-0.5-0.9-0.9-1.7-1.2c-0.5-0.2-0.7-0.5-0.7-0.9c0-0.3,0.1-0.5,0.3-0.5s0.5,0,1,0c1.9,0.2,4.1,0.2,6.7,0c0.5,0,0.7-0.1,0.8,0
			c0.3,0,0.4,0.2,0.4,0.5c0,0.3,0,0.6-0.3,0.7c-0.1,0.1-0.3,0.1-0.8,0.2c-0.9,0.2-1.5,0.4-1.7,0.7c-0.2,0.3-0.3,0.8-0.3,1.7v17.3
			c0,1.1,0.4,1.8,1.1,2.2c0.7,0.4,2.1,0.6,4,0.6c1.8,0,3.2-0.2,4.1-0.7c0.9-0.5,1.6-1.4,2.2-2.7c0.2-0.5,0.5-0.7,0.9-0.5
			C434.1,243.1,434.2,243.3,434.1,243.7z"/>
		<path class="st2" d="M448.2,223.5c0,0.3-0.3,0.6-1,0.8c-1.6,0.5-2.3,1.1-2.3,1.8v18.8c0,1.2,0.7,1.9,2.1,2.2
			c0.7,0.1,1.1,0.4,1.1,0.8c0,0.3-0.1,0.5-0.2,0.6c-0.1,0.1-0.5,0.1-1,0.1c-3.4-0.1-6-0.1-7.9,0c-0.5,0-0.8-0.1-0.8-0.3
			c0-0.1,0-0.2,0-0.4c0-0.3,0.3-0.5,0.9-0.6c1.1-0.2,1.7-0.4,1.9-0.5c0.4-0.3,0.6-0.8,0.6-1.6v-19c0-1.1-0.7-1.7-2.2-2
			c-0.6-0.1-0.9-0.3-0.9-0.6c0-0.4,0-0.6,0.1-0.7c0.1-0.1,0.3-0.1,0.7-0.1c2.5,0.3,5.1,0.2,7.8-0.1c0.5-0.1,0.8-0.1,0.9-0.1
			C448.1,222.9,448.2,223.1,448.2,223.5z"/>
		<path class="st2" d="M481.5,223.6c0,0.3-0.1,0.5-0.2,0.6c-0.1,0.1-0.5,0.3-1,0.4c-0.7,0.2-1.4,1.1-2.3,2.7
			c-3.1,5.9-6.3,12.8-9.6,20.8c-0.2,0.6-0.7,0.9-1.4,1.1c0,0-0.1,0-0.1,0c-0.3,0-0.5-0.4-0.8-1.2c-0.4-1.6-1.7-4.7-3.8-9.4
			c-2.1-4.6-4.2-8.7-6.1-12.1c-0.7-1.2-1.6-1.9-2.7-2.2c-0.6-0.1-0.9-0.3-0.9-0.6c0-0.6,0.3-0.9,0.8-0.8c2.4,0.3,5.1,0.1,8.3-0.3
			c0.5-0.1,0.8-0.1,0.9-0.1c0.2,0.1,0.3,0.3,0.3,0.7c0,0.3-0.3,0.6-1,0.8c-1.3,0.5-1.9,1-1.9,1.5c0,0.2,0.1,0.5,0.2,0.8
			c1.3,2.6,3.8,8.2,7.6,16.8c0.1,0.3,0.3,0.4,0.4,0.4c0.1,0,0.2-0.1,0.3-0.4c1.1-2.5,3.4-7.8,7.1-16c0.1-0.3,0.2-0.6,0.2-0.9
			c0-0.8-0.8-1.5-2.3-2c-0.6-0.2-0.9-0.5-0.8-0.9c0-0.5,0.5-0.6,1.3-0.5c2.6,0.3,4.9,0.3,6.9,0.1
			C481.3,222.9,481.5,223.1,481.5,223.6z"/>
		<path class="st2" d="M505.3,243.7c-0.4,1.5-0.6,3.1-0.7,4.6c0,0.2-0.4,0.3-1.2,0.3c-2-0.1-4.6-0.2-7.7-0.2c-3.4,0-6.4,0.1-8.9,0.2
			c-0.6,0-0.8-0.2-0.8-0.7c0-0.3,0.3-0.5,0.8-0.6c0.8-0.1,1.3-0.2,1.5-0.4c0.3-0.3,0.4-0.8,0.4-1.6v-17.8c0-1.2-0.1-2-0.3-2.3
			c-0.2-0.3-0.8-0.6-1.8-0.9c-0.5-0.2-0.7-0.5-0.6-0.9c0.1-0.2,0.2-0.4,0.3-0.4c0.1,0,0.5,0,1,0.1c0.8,0.1,3,0.2,6.5,0.2
			c3.5,0,6.5-0.1,9-0.2c0.8-0.1,1.3,0,1.3,0.2c0,0.1,0,0.1,0,0.2c-0.3,1.3-0.4,2.7-0.3,4.4c0,0.4-0.2,0.6-0.6,0.6
			c-0.4,0-0.6-0.2-0.8-0.5c-0.4-0.9-0.7-1.5-0.9-1.8c-0.4-0.5-1-0.8-1.8-0.9c-0.6-0.1-2.8-0.2-6.5-0.2c-0.4,0-0.7,0.1-0.8,0.2
			c-0.1,0.1-0.1,0.3-0.1,0.6v8.1c0,0.3,0.2,0.5,0.6,0.5c1.2,0,2.9-0.1,5.1-0.3c0.4,0,0.7-0.2,0.9-0.6c0.1-0.3,0.3-0.8,0.4-1.6
			c0.1-0.6,0.4-0.8,0.9-0.6c0.4,0.1,0.6,0.3,0.6,0.6c-0.4,1.8-0.5,4-0.3,6.8c0,0.3-0.2,0.5-0.6,0.6c-0.4,0.1-0.6-0.2-0.7-0.6
			c-0.1-1-0.3-1.6-0.5-2c-0.2-0.3-0.6-0.5-1.1-0.6c-1.1-0.1-2.7-0.2-4.8-0.2c-0.2,0-0.3,0.1-0.3,0.3v8.4c0,1.2,0.7,1.9,2.1,2.2
			c0.3,0.1,1.6,0.1,3.6,0.1c3.2,0,5.2-1.1,6-3.4c0.2-0.5,0.5-0.7,0.9-0.5C505.2,243.1,505.4,243.3,505.3,243.7z"/>
		<path class="st2" d="M533,248.6c0,0.3-0.2,0.4-0.8,0.4c-4.6,0-9-4-13.1-11.9c-1.6,0.1-2.4,0.1-2.5,0.1v8.1c0,0.6,0.1,1,0.4,1.2
			s1,0.4,2,0.5c0.7,0.1,1.1,0.4,1.1,0.8c0,0.3-0.1,0.5-0.2,0.6c-0.1,0.1-0.4,0.1-1,0.1c-2.3-0.1-4.9-0.1-7.6,0.2
			c-0.6,0-0.8-0.2-0.8-0.7c0-0.3,0.3-0.5,0.8-0.6c1.3-0.1,1.9-0.8,1.9-2.1v-18.5c0-1.2-0.7-2-2.1-2.3c-0.7-0.1-1.1-0.4-1.1-0.7
			c0-0.5,0.2-0.7,0.7-0.7c0.1,0,0.3,0,0.5,0c0.5,0.1,1.3,0.1,2.4,0.1c0.4,0,1.3,0,2.7-0.1c1.5,0,2.8-0.1,4.1-0.1
			c2.6,0,4.6,0.5,6.1,1.5c1.7,1.1,2.5,2.6,2.5,4.7c0,3.6-2.1,5.9-6.2,7.1c1.3,3,2.9,5.6,4.6,7.7c1.8,2.2,3.5,3.4,4.9,3.6
			C532.8,247.9,533,248.1,533,248.6z M525.2,229.9c0-1.9-0.5-3.3-1.5-4.1c-1-0.8-2.5-1.2-4.7-1.2c-1,0-1.6,0.1-2,0.4
			c-0.3,0.3-0.5,0.8-0.5,1.7v9.1c3.1-0.1,5.4-0.7,6.7-1.6C524.6,233.2,525.2,231.8,525.2,229.9z"/>
	</g>
	<g>
		<g>
			<polygon class="st3" points="557.3,11.5 557.3,201.3 282.4,201.3 282.3,188.3 544.1,188.3 544.1,24.4 281.4,24.4 281.4,11.5 			
				"/>
		</g>
		<g>
			<polygon class="st4" points="282.4,201.3 12,201.3 12,11.5 281.4,11.5 281.4,24.4 25.2,24.4 25.2,188.3 282.3,188.3 			"/>
		</g>
	</g>
</g>
</svg>
